<svg xmlns="http://www.w3.org/2000/svg" viewBox="0 0 2137.95 314.3"><defs><style>.cls-1{fill:#fae912;}.cls-2{fill:#fff;}</style></defs><g id="Слой_2" data-name="Слой 2"><g id="Layer_1" data-name="Layer 1"><path class="cls-1" d="M37.11,110H297.24C275.84,50.28,217.79,7.41,149.51,7.41S23.19,50.28,1.8,110Z"/><path class="cls-1" d="M164.45,206.49a128.92,128.92,0,0,1-14.93-22,129,129,0,0,1-14.94,22H0C19.83,269,79.27,314.3,149.51,314.3S279.2,269,299,206.49Z"/><path class="cls-2" d="M91.35,130.44,75.74,146.06,60.13,130.44a7,7,0,1,0-9.9,9.9L65.85,156,50.23,171.56a7,7,0,0,0,9.9,9.89l15.61-15.6,15.61,15.6a7,7,0,1,0,9.9-9.89L85.65,156l15.6-15.61a7,7,0,1,0-9.9-9.9"/><path class="cls-2" d="M218.68,192.63a36.22,36.22,0,1,1,36.22-36.21,36.26,36.26,0,0,1-36.22,36.21m0-57.18a21,21,0,1,0,21,21,21,21,0,0,0-21-21"/><path class="cls-2" d="M1616.11,16.16q0,12.8-17.41,12.78H1438q-17.4,0-17.41-14.68Q1420.61.54,1438,.53h163.4q14.68,0,14.69,15.63"/><path class="cls-2" d="M1616.11,182.42q0,12.77-17.41,12.78H1438q-17.4,0-17.41-14.68,0-13.76,17.41-13.73h163.4q14.68,0,14.69,15.63"/><path class="cls-2" d="M1119.65,0q12.75,0,12.76,17.41V178.09q0,17.4-14.67,17.39-13.76,0-13.74-17.39V14.68Q1104,0,1119.65,0"/><path class="cls-2" d="M1616.11,100.09q0,12.76-17.41,12.77H1438q-17.4,0-17.41-14.67,0-13.75,17.41-13.73h163.4q14.68,0,14.69,15.63"/><path class="cls-2" d="M1374.66,13.6a45.18,45.18,0,0,1-1.76,9.1Q1351.27,44.2,1230,167.35h130.11q14.54,1.77,14.54,12.63,0,15.51-17.26,15.51H1198.22q-17.27,0-17.28-13.6a57.3,57.3,0,0,1,1.77-8.3Q1204.21,152.13,1325.58,29H1198.22q-17.27,0-17.28-13.59,0-14.55,14.55-14.55h164.63q14.54,1.91,14.54,12.78"/><path class="cls-2" d="M1671.41.82c8.41,0,12.64,5.75,12.64,17.26V167.35h137.44v-152Q1821.49.82,1837,.82q12.64,0,12.65,17.26V182.71q0,11.7-17.28,12.78H1668.69q-10.32,0-12.78-15.51V15.37q0-14.55,15.5-14.55"/><path class="cls-2" d="M575,16.79q0,12.63-17.26,12.64H408.52V166.87h152q14.54,0,14.54,15.49Q575,195,557.78,195H393.16q-11.71,0-12.78-17.26V14.07q0-10.32,15.49-12.76H560.5Q575,1.31,575,16.79"/><path class="cls-2" d="M799.54.82H634q-15.5,0-15.5,14.56V180q2.43,15.53,12.78,15.51H794.91q17.25-1.06,17.27-12.78V18.08C812.18,6.58,808,.82,799.54.82m-152.94,27H784V167.35H646.6Z"/><path class="cls-2" d="M1905,.82h1.88q10.65,0,30.06,35.6,6,6.81,77.76,118.83h.94q0-1.77,97.74-149.81c4.89-3.07,8.24-4.62,10.08-4.62h1.75q9,0,12.78,13.73v1.77q0,4.62-51.12,81.42,51.11,77.9,51.12,82.24v2.73q-3.67,12.76-12.78,12.78h-1.75q-11,0-34.8-43-14.14-19.7-18.23-28.27-1,0-44.74,66.61c-3.51,3.08-6.6,4.63-9.23,4.63h-2.72q-9.51,0-36.56-46.63l-17.27-24.61q-37.78,61.84-46.61,69.47l-6.42,1.77H1905q-9.26,0-12.78-13.73V180q0-4.35,51.1-82.24v-.95q-46.89-68.1-51.1-80.47V14.55Q1896.13.82,1905,.82"/><path class="cls-2" d="M1044.38,167.07H891.73v-149Q891.73.82,879.08.82q-15.48,0-15.49,14.55V180l0,.25a5.44,5.44,0,0,0,0,.58c0,5.3,1.77,9.1,5.19,11.55a10.29,10.29,0,0,0,7.59,3.13h165.29q17.4,0,17.4-12.78,0-15.65-14.68-15.64"/><path class="cls-1" d="M429.16,287.59a51.69,51.69,0,0,1-.76,10.14,10.13,10.13,0,0,1-2.95,5.64,12.92,12.92,0,0,1-6.37,2.76,74.42,74.42,0,0,1-12.1.76,58.18,58.18,0,0,1-12.17-.92,10.79,10.79,0,0,1-6.39-3.63q-2.26-2.76-3-8.22a155.32,155.32,0,0,1-.76-15.62,121.3,121.3,0,0,1,.76-15.7c.49-3.59,1.49-6.3,3-8.15a10.29,10.29,0,0,1,6.29-3.68q3.78-.93,12.26-.92a59.39,59.39,0,0,1,11.58.84,11.74,11.74,0,0,1,6.13,2.85,9.62,9.62,0,0,1,2.71,5.2,55,55,0,0,1,1,9.23h-6c-.36-3.79-.64-6.19-.84-7.22a5.86,5.86,0,0,0-1.6-3.17,7.76,7.76,0,0,0-4.2-1.79,71.17,71.17,0,0,0-8.73-.41,43.22,43.22,0,0,0-9.49.76,6.76,6.76,0,0,0-4.45,3,13.36,13.36,0,0,0-1.76,6.12q-.33,5.22-.33,13,0,9.51.33,13.1a13.64,13.64,0,0,0,1.76,6.13,6.91,6.91,0,0,0,4.45,3,44.09,44.09,0,0,0,9.49.74,81.55,81.55,0,0,0,9.25-.42,7.82,7.82,0,0,0,4.44-1.68,6.2,6.2,0,0,0,2-3.85,56.64,56.64,0,0,0,.43-7.9Z"/><path class="cls-1" d="M539.41,250.29l-21.18,32.57v23.43h-6.29V282.86l-20.56-32.57h7l16.95,26.79,17-26.79Z"/><path class="cls-1" d="M647,290.18a26.43,26.43,0,0,1-1.25,8.82,10.39,10.39,0,0,1-4.47,5.45,17.38,17.38,0,0,1-8.54,1.84H604.3v-56h26.88a22,22,0,0,1,8.22,1.25,8.71,8.71,0,0,1,4.63,4.28,20.52,20.52,0,0,1,1.41,8.33A29.7,29.7,0,0,1,645,270a7.11,7.11,0,0,1-2,4,9.67,9.67,0,0,1-4.53,2.85,13.27,13.27,0,0,1,5.46,2.6,7.91,7.91,0,0,1,2.52,4.2A25.82,25.82,0,0,1,647,290.18Zm-7.89-25.54a14.86,14.86,0,0,0-.76-5.37,4.92,4.92,0,0,0-2.6-2.69,15,15,0,0,0-5.29-.76h-20v18.9h17.74a20,20,0,0,0,6.62-.84,5.73,5.73,0,0,0,3.28-3A14.87,14.87,0,0,0,639.15,264.64Zm1.6,25.87q0-4.61-.92-6.56a5.41,5.41,0,0,0-3-2.93,18,18,0,0,0-6.45-.84H610.51v20.58h17.22a38.15,38.15,0,0,0,8-.59,5,5,0,0,0,3.77-2.69Q640.76,295.18,640.75,290.51Z"/><path class="cls-1" d="M750.65,255.82H720.76v19.07h28.47v5.45H720.76v20.42h29.72v5.53H714.55v-56h36.1Z"/><path class="cls-1" d="M860.81,266.67a33.2,33.2,0,0,1-.6,7.21,8.76,8.76,0,0,1-2.6,4.7c-1.21,1.24-3.37,2.16-6.46,2.76q8.91.65,8.9,10.77v14.18h-6.29V293.52a11.79,11.79,0,0,0-1.09-5.69,6.35,6.35,0,0,0-3.44-3,17.93,17.93,0,0,0-6-.84H824.12v22.34H817.9V250.37h26.53q6.44,0,9.92,1.44a8.88,8.88,0,0,1,4.94,4.94Q860.81,260.11,860.81,266.67Zm-6.38,1.41a31.57,31.57,0,0,0-.59-7.13,5.71,5.71,0,0,0-2.77-3.69c-1.41-.9-3.59-1.35-6.56-1.35H824.12v22.67h18.22a22.36,22.36,0,0,0,7-.84,6.11,6.11,0,0,0,3.77-3.1A14.17,14.17,0,0,0,854.43,268.08Z"/><path class="cls-1" d="M1052.82,290.19a34.71,34.71,0,0,1-.92,8.89,8.73,8.73,0,0,1-3.28,4.86,14,14,0,0,1-6,2.27,72.53,72.53,0,0,1-10.66.59q-5,0-9.39-.43a18.37,18.37,0,0,1-6.32-1.92,9.62,9.62,0,0,1-4.1-4.61,19.92,19.92,0,0,1-1.43-8.15V289h6.13c0,3.88.33,6.66,1,8.32a5.55,5.55,0,0,0,4,3.27,60.68,60.68,0,0,0,10.15.75,52.55,52.55,0,0,0,8.24-.57,9.35,9.35,0,0,0,4.44-1.85,5.6,5.6,0,0,0,1.69-3,29,29,0,0,0,.32-5.13,18.34,18.34,0,0,0-.51-4.94A5.45,5.45,0,0,0,1044,283a9.36,9.36,0,0,0-4.29-1.42,51.29,51.29,0,0,0-7.64-.59,55.11,55.11,0,0,1-11.83-1.68,12.18,12.18,0,0,1-6.8-4.53c-1.57-2.17-2.36-5.3-2.36-9.42q0-6.65,2-9.9a9.88,9.88,0,0,1,6.29-4.37,57.09,57.09,0,0,1,12.51-1,63.64,63.64,0,0,1,8.88.5,15.76,15.76,0,0,1,6,2,9.4,9.4,0,0,1,3.6,4.45,21,21,0,0,1,1.27,8l.09.84h-6.13a18.11,18.11,0,0,0-.92-6.56,5.67,5.67,0,0,0-3.77-2.93,33.43,33.43,0,0,0-9-.84,36.73,36.73,0,0,0-9.23.84,6.91,6.91,0,0,0-4.28,2.77,12.09,12.09,0,0,0-1.19,5.88,13.75,13.75,0,0,0,.76,5.14,5.6,5.6,0,0,0,2.6,2.84,16.41,16.41,0,0,0,5,1.33c2,.26,5.15.52,9.41.76a36.23,36.23,0,0,1,10.07,1.6,11.15,11.15,0,0,1,5.8,4.53A18.22,18.22,0,0,1,1052.82,290.19Z"/><path class="cls-1" d="M1160.73,266.4a38.79,38.79,0,0,1-.84,8.92,11,11,0,0,1-2.94,5.37,12,12,0,0,1-5.69,2.85,44.3,44.3,0,0,1-9.25.84h-16.72v21.91h-6.21v-56h26.69a19.39,19.39,0,0,1,8.91,1.77,10.43,10.43,0,0,1,4.7,5.28A26,26,0,0,1,1160.73,266.4Zm-6.29,1.19a35.88,35.88,0,0,0-.58-6.89,5.62,5.62,0,0,0-2.68-3.61c-1.29-.84-3.33-1.27-6.14-1.27h-19.75v23.11h15a42.44,42.44,0,0,0,8.49-.68,6.32,6.32,0,0,0,4.29-3.11C1154,273.52,1154.44,271,1154.44,267.59Z"/><path class="cls-1" d="M1274.24,278.33a106.66,106.66,0,0,1-.84,15.54c-.62,3.74-1.68,6.47-3.21,8.23a12.35,12.35,0,0,1-6.8,3.79,70.05,70.05,0,0,1-12.75.91,71.9,71.9,0,0,1-12.77-.91,11.85,11.85,0,0,1-6.72-3.79,17.06,17.06,0,0,1-3.18-8.23,104.5,104.5,0,0,1-.84-15.54,121.85,121.85,0,0,1,.84-15.53c.59-3.7,1.65-6.43,3.18-8.23a12.28,12.28,0,0,1,6.8-3.68,88.39,88.39,0,0,1,25.44,0,12.08,12.08,0,0,1,6.8,3.76c1.54,1.77,2.6,4.48,3.21,8.15A108.14,108.14,0,0,1,1274.24,278.33Zm-6.3.09q0-8.25-.43-13.1a13.63,13.63,0,0,0-2.09-6.38,7.9,7.9,0,0,0-4.88-2.85,49.46,49.46,0,0,0-9.9-.67,48.05,48.05,0,0,0-9.82.67,7.63,7.63,0,0,0-4.87,2.77c-1,1.29-1.66,3.41-2,6.38a115.22,115.22,0,0,0-.52,13.1c.09,6,.25,10.34.52,13,.34,2.93,1,5.08,2.09,6.46a7.42,7.42,0,0,0,4.79,2.88,57.23,57.23,0,0,0,9.82.65,66.71,66.71,0,0,0,9.9-.65,7.51,7.51,0,0,0,4.88-2.88,13.4,13.4,0,0,0,2.09-6.29Q1267.95,286.55,1267.94,278.42Z"/><path class="cls-1" d="M1386.4,266.67a33.31,33.31,0,0,1-.59,7.21,8.9,8.9,0,0,1-2.6,4.7q-1.83,1.86-6.46,2.76,8.89.65,8.9,10.77v14.18h-6.3V293.52a11.81,11.81,0,0,0-1.08-5.69,6.35,6.35,0,0,0-3.44-3,18,18,0,0,0-6-.84h-19.15v22.34h-6.21V250.37H1370q6.43,0,9.92,1.44a8.88,8.88,0,0,1,4.94,4.94Q1386.41,260.11,1386.4,266.67Zm-6.37,1.41a31.57,31.57,0,0,0-.59-7.13,5.78,5.78,0,0,0-2.77-3.69q-2.12-1.35-6.56-1.35h-20.4v22.67h18.23a22.45,22.45,0,0,0,7-.84,6.11,6.11,0,0,0,3.77-3.1A14.17,14.17,0,0,0,1380,268.08Z"/><path class="cls-1" d="M1492.88,255.91h-18.06v50.38h-6.29V255.91h-18.31v-5.62h42.66Z"/><path class="cls-1" d="M1689.59,306.29H1683l-4.37-11.5H1650.3l-4.29,11.5h-6.72l20.41-56h9Zm-12.85-17-12.43-34.44L1652,289.34Z"/><path class="cls-1" d="M1798.15,266.67a33.2,33.2,0,0,1-.6,7.21,8.76,8.76,0,0,1-2.6,4.7q-1.83,1.86-6.46,2.76,8.91.65,8.9,10.77v14.18h-6.29V293.52a11.79,11.79,0,0,0-1.09-5.69,6.35,6.35,0,0,0-3.44-3,17.93,17.93,0,0,0-6-.84h-19.14v22.34h-6.21V250.37h26.52q6.43,0,9.93,1.44a8.89,8.89,0,0,1,4.93,4.94Q1798.15,260.11,1798.15,266.67Zm-6.37,1.41a31.44,31.44,0,0,0-.6-7.13,5.71,5.71,0,0,0-2.77-3.69q-2.1-1.35-6.56-1.35h-20.39v22.67h18.22a22.4,22.4,0,0,0,7-.84,6.08,6.08,0,0,0,3.77-3.1A14.16,14.16,0,0,0,1791.78,268.08Z"/><path class="cls-1" d="M1902.27,255.82h-29.89v19.07h28.47v5.45h-28.47v20.42h29.72v5.53h-35.93v-56h36.1Z"/><path class="cls-1" d="M2017.47,250.29l-.09,56h-9.81l-31.49-50.63v50.63h-6.21v-56h9.9l31.49,51.12V250.29Z"/><path class="cls-1" d="M2133.68,306.29H2127l-4.37-11.5h-28.28l-4.29,11.5h-6.72l20.41-56h9Zm-12.85-17L2108.4,254.9l-12.34,34.44Z"/></g></g></svg>